<?xml version="1.0" encoding="UTF-8"?>
<svg id="Layer_1" xmlns="http://www.w3.org/2000/svg" version="1.1" viewBox="0 0 1024 768">
  <!-- Generator: Adobe Illustrator 30.5.1, SVG Export Plug-In . SVG Version: 2.1.4 Build 3)  -->
  <defs>
    <style>
      .st0 {
        fill: #cf0;
      }

      .st1 {
        fill: #ff1b8d;
      }
    </style>
  </defs>
  
  <g>
    <path d="M291.53,456.11h-22.55v-13.48c-3.75,5.24-8.17,9.15-13.26,11.71s-10.24,3.85-15.42,3.85c-10.54,0-19.57-4.25-27.09-12.75-7.52-8.5-11.28-20.35-11.28-35.56s3.66-27.38,10.97-35.47c7.32-8.09,16.56-12.14,27.74-12.14,10.25,0,19.13,4.26,26.61,12.79v-45.63h24.28v126.68ZM226.72,408.24c0,9.79,1.35,16.88,4.06,21.26,3.92,6.34,9.39,9.51,16.42,9.51,5.59,0,10.34-2.38,14.26-7.13,3.92-4.75,5.88-11.85,5.88-21.3,0-10.54-1.9-18.13-5.7-22.77-3.8-4.64-8.67-6.96-14.6-6.96s-10.59,2.29-14.47,6.87c-3.89,4.58-5.83,11.42-5.83,20.52Z"/>
    <path d="M364.94,456.11v-13.74c-3.34,4.9-7.73,8.76-13.18,11.58-5.44,2.82-11.19,4.23-17.24,4.23s-11.7-1.35-16.59-4.06c-4.9-2.71-8.44-6.51-10.63-11.41-2.19-4.9-3.28-11.67-3.28-20.31v-58.07h24.28v42.17c0,12.9.45,20.81,1.34,23.72.89,2.91,2.52,5.21,4.88,6.91,2.36,1.7,5.36,2.55,8.99,2.55,4.15,0,7.86-1.14,11.15-3.41,3.28-2.28,5.53-5.1,6.74-8.47,1.21-3.37,1.81-11.62,1.81-24.76v-38.71h24.28v91.77h-22.55Z"/>
    <path d="M399.53,364.34h13.48v-6.91c0-7.72.82-13.48,2.46-17.28s4.67-6.9,9.07-9.29c4.41-2.39,9.98-3.59,16.72-3.59s13.68,1.04,20.31,3.11l-3.28,16.94c-3.86-.92-7.58-1.38-11.15-1.38s-6.04.82-7.56,2.46c-1.53,1.64-2.29,4.8-2.29,9.46v6.48h18.15v19.1h-18.15v72.67h-24.28v-72.67h-13.48v-19.1Z"/>
    <path d="M455.98,364.34h13.48v-6.91c0-7.72.82-13.48,2.46-17.28,1.64-3.8,4.67-6.9,9.07-9.29,4.41-2.39,9.98-3.59,16.72-3.59s13.68,1.04,20.31,3.11l-3.28,16.94c-3.86-.92-7.58-1.38-11.15-1.38s-6.04.82-7.56,2.46c-1.53,1.64-2.29,4.8-2.29,9.46v6.48h18.15v19.1h-18.15v72.67h-24.28v-72.67h-13.48v-19.1Z"/>
    <path d="M523.07,456.11v-126.68h24.28v126.68h-24.28Z"/>
    <path d="M622.9,426.9l24.2,4.06c-3.11,8.87-8.02,15.63-14.73,20.26-6.71,4.64-15.11,6.96-25.19,6.96-15.96,0-27.77-5.21-35.43-15.64-6.05-8.35-9.07-18.89-9.07-31.63,0-15.21,3.97-27.12,11.92-35.73,7.95-8.61,18-12.92,30.16-12.92,13.65,0,24.42,4.51,32.32,13.52,7.89,9.02,11.67,22.83,11.32,41.43h-60.83c.17,7.2,2.13,12.8,5.88,16.81,3.74,4,8.41,6.01,14,6.01,3.8,0,7-1.04,9.59-3.11s4.55-5.41,5.88-10.02ZM624.28,402.36c-.17-7.03-1.99-12.37-5.44-16.03-3.46-3.66-7.66-5.49-12.62-5.49-5.3,0-9.68,1.93-13.13,5.79-3.46,3.86-5.16,9.1-5.1,15.73h36.29Z"/>
    <path d="M726.08,433.22l-2.34-13.54c-2.46,5.39-6.13,9.95-11.02,13.65-4.88,3.71-10.31,6.08-16.27,7.11-6.08,1.05-11.76.66-17.04-1.18-5.28-1.83-9.42-4.98-12.41-9.43-2.99-4.45-5.22-10.94-6.69-19.45l-9.88-57.22,23.93-4.13,7.17,41.55c2.2,12.72,3.98,20.43,5.35,23.15,1.38,2.72,3.37,4.71,5.99,5.98,2.62,1.27,5.71,1.6,9.29.98,4.09-.71,7.56-2.46,10.4-5.26,2.85-2.8,4.58-5.96,5.2-9.49s-.19-11.76-2.42-24.7l-6.59-38.15,23.93-4.13,15.61,90.43-22.22,3.84Z"/>
    <path d="M744.35,336.94l22.31-3.85,2.29,13.28c2.11-5.04,5.39-9.41,9.84-13.1,4.45-3.69,9.68-6.06,15.7-7.09,10.5-1.81,20.13.76,28.87,7.73,8.74,6.97,14.39,17.8,16.92,32.51s.94,27.47-4.99,37.12c-5.94,9.65-14.15,15.38-24.65,17.19-5,.86-9.7.65-14.1-.64-4.4-1.29-9.26-3.95-14.58-8.01l7.86,45.56-23.93,4.13-21.55-124.83ZM775.56,376.54c1.75,10.16,5.06,17.32,9.93,21.48,4.87,4.16,10.2,5.74,15.99,4.74,5.56-.96,9.8-3.99,12.73-9.08,2.92-5.09,3.5-12.72,1.75-22.88-1.64-9.48-4.75-16.19-9.35-20.13-4.6-3.94-9.71-5.43-15.33-4.46-5.85,1.01-10.31,4.1-13.39,9.28-3.08,5.18-3.86,12.2-2.33,21.05Z"/>
    <path class="st1" d="M281.71,446.29h-22.55v-13.48c-3.75,5.24-8.17,9.15-13.26,11.71s-10.24,3.85-15.42,3.85c-10.54,0-19.57-4.25-27.09-12.75-7.52-8.5-11.28-20.35-11.28-35.56s3.66-27.38,10.97-35.47c7.32-8.09,16.56-12.14,27.74-12.14,10.25,0,19.13,4.26,26.61,12.79v-45.63h24.28v126.68ZM216.9,398.41c0,9.79,1.35,16.88,4.06,21.26,3.92,6.34,9.39,9.51,16.42,9.51,5.59,0,10.34-2.38,14.26-7.13,3.92-4.75,5.88-11.85,5.88-21.3,0-10.54-1.9-18.13-5.7-22.77-3.8-4.64-8.67-6.96-14.6-6.96s-10.59,2.29-14.47,6.87-5.83,11.42-5.83,20.52Z"/>
    <path class="st1" d="M355.11,446.29v-13.74c-3.34,4.9-7.73,8.76-13.18,11.58-5.44,2.82-11.19,4.23-17.24,4.23s-11.7-1.35-16.59-4.06c-4.9-2.71-8.44-6.51-10.63-11.41-2.19-4.9-3.28-11.67-3.28-20.31v-58.07h24.28v42.17c0,12.9.45,20.81,1.34,23.72.89,2.91,2.52,5.21,4.88,6.91,2.36,1.7,5.36,2.55,8.99,2.55,4.15,0,7.86-1.14,11.15-3.41,3.28-2.28,5.53-5.1,6.74-8.47,1.21-3.37,1.81-11.62,1.81-24.76v-38.71h24.28v91.77h-22.55Z"/>
    <path class="st1" d="M389.71,354.52h13.48v-6.91c0-7.72.82-13.48,2.46-17.28s4.67-6.9,9.07-9.29c4.41-2.39,9.98-3.59,16.72-3.59s13.68,1.04,20.31,3.11l-3.28,16.94c-3.86-.92-7.58-1.38-11.15-1.38s-6.04.82-7.56,2.46c-1.53,1.64-2.29,4.8-2.29,9.46v6.48h18.15v19.1h-18.15v72.67h-24.28v-72.67h-13.48v-19.1Z"/>
    <path class="st1" d="M446.16,354.52h13.48v-6.91c0-7.72.82-13.48,2.46-17.28,1.64-3.8,4.67-6.9,9.07-9.29,4.41-2.39,9.98-3.59,16.72-3.59s13.68,1.04,20.31,3.11l-3.28,16.94c-3.86-.92-7.58-1.38-11.15-1.38s-6.04.82-7.56,2.46c-1.53,1.64-2.29,4.8-2.29,9.46v6.48h18.15v19.1h-18.15v72.67h-24.28v-72.67h-13.48v-19.1Z"/>
    <path class="st1" d="M513.24,446.29v-126.68h24.28v126.68h-24.28Z"/>
    <path class="st1" d="M613.08,417.08l24.2,4.06c-3.11,8.87-8.02,15.63-14.73,20.26-6.71,4.64-15.11,6.96-25.19,6.96-15.96,0-27.77-5.21-35.43-15.64-6.05-8.35-9.07-18.89-9.07-31.63,0-15.21,3.97-27.12,11.92-35.73,7.95-8.61,18-12.92,30.16-12.92,13.65,0,24.42,4.51,32.32,13.52,7.89,9.02,11.67,22.83,11.32,41.43h-60.83c.17,7.2,2.13,12.8,5.88,16.81,3.74,4,8.41,6.01,14,6.01,3.8,0,7-1.04,9.59-3.11s4.55-5.41,5.88-10.02ZM614.46,392.54c-.17-7.03-1.99-12.37-5.44-16.03-3.46-3.66-7.66-5.49-12.62-5.49-5.3,0-9.68,1.93-13.13,5.79-3.46,3.86-5.16,9.1-5.1,15.73h36.29Z"/>
    <path class="st0" d="M716.25,423.4l-2.34-13.54c-2.46,5.39-6.13,9.95-11.02,13.65-4.88,3.71-10.31,6.08-16.27,7.11-6.08,1.05-11.76.66-17.04-1.18-5.28-1.83-9.42-4.98-12.41-9.43-2.99-4.45-5.22-10.94-6.69-19.45l-9.88-57.22,23.93-4.13,7.17,41.55c2.2,12.72,3.98,20.43,5.35,23.15,1.38,2.72,3.37,4.71,5.99,5.98,2.62,1.27,5.71,1.6,9.29.98,4.09-.71,7.56-2.46,10.4-5.26,2.85-2.8,4.58-5.96,5.2-9.49.62-3.53-.19-11.76-2.42-24.7l-6.59-38.15,23.93-4.13,15.61,90.43-22.22,3.84Z"/>
    <path class="st0" d="M734.53,327.12l22.31-3.85,2.29,13.28c2.11-5.04,5.39-9.41,9.84-13.1,4.45-3.69,9.68-6.06,15.7-7.09,10.5-1.81,20.13.76,28.87,7.73,8.74,6.97,14.39,17.8,16.92,32.51,2.61,15.1.94,27.47-4.99,37.12-5.94,9.65-14.15,15.38-24.65,17.19-5,.86-9.7.65-14.1-.64-4.4-1.29-9.26-3.95-14.58-8.01l7.86,45.56-23.93,4.13-21.55-124.83ZM765.74,366.72c1.75,10.16,5.06,17.32,9.93,21.48,4.87,4.16,10.2,5.74,15.99,4.74,5.56-.96,9.8-3.99,12.73-9.08,2.92-5.09,3.5-12.72,1.75-22.88-1.64-9.48-4.75-16.19-9.35-20.13-4.6-3.94-9.71-5.43-15.33-4.46-5.85,1.01-10.31,4.1-13.39,9.28-3.08,5.18-3.86,12.2-2.33,21.05Z"/>
    <path class="st0" d="M272.13,436.71h-22.55v-13.48c-3.75,5.24-8.17,9.15-13.26,11.71s-10.24,3.85-15.42,3.85c-10.54,0-19.57-4.25-27.09-12.75-7.52-8.5-11.28-20.35-11.28-35.56s3.66-27.38,10.97-35.47c7.32-8.09,16.56-12.14,27.74-12.14,10.25,0,19.13,4.26,26.61,12.79v-45.63h24.28v126.68ZM207.32,388.84c0,9.79,1.35,16.88,4.06,21.26,3.92,6.34,9.39,9.51,16.42,9.51,5.59,0,10.34-2.38,14.26-7.13,3.92-4.75,5.88-11.85,5.88-21.3,0-10.54-1.9-18.13-5.7-22.77-3.8-4.64-8.67-6.96-14.6-6.96s-10.59,2.29-14.47,6.87-5.83,11.42-5.83,20.52Z"/>
    <path class="st0" d="M345.54,436.71v-13.74c-3.34,4.9-7.73,8.76-13.18,11.58-5.44,2.82-11.19,4.23-17.24,4.23s-11.7-1.35-16.59-4.06c-4.9-2.71-8.44-6.51-10.63-11.41-2.19-4.9-3.28-11.67-3.28-20.31v-58.07h24.28v42.17c0,12.9.45,20.81,1.34,23.72.89,2.91,2.52,5.21,4.88,6.91,2.36,1.7,5.36,2.55,8.99,2.55,4.15,0,7.86-1.14,11.15-3.41,3.28-2.28,5.53-5.1,6.74-8.47,1.21-3.37,1.81-11.62,1.81-24.76v-38.71h24.28v91.77h-22.55Z"/>
    <path class="st0" d="M380.13,344.94h13.48v-6.91c0-7.72.82-13.48,2.46-17.28s4.67-6.9,9.07-9.29c4.41-2.39,9.98-3.59,16.72-3.59s13.68,1.04,20.31,3.11l-3.28,16.94c-3.86-.92-7.58-1.38-11.15-1.38s-6.04.82-7.56,2.46c-1.53,1.64-2.29,4.8-2.29,9.46v6.48h18.15v19.1h-18.15v72.67h-24.28v-72.67h-13.48v-19.1Z"/>
    <path class="st0" d="M436.58,344.94h13.48v-6.91c0-7.72.82-13.48,2.46-17.28s4.67-6.9,9.07-9.29c4.41-2.39,9.98-3.59,16.72-3.59s13.68,1.04,20.31,3.11l-3.28,16.94c-3.86-.92-7.58-1.38-11.15-1.38s-6.04.82-7.56,2.46c-1.53,1.64-2.29,4.8-2.29,9.46v6.48h18.15v19.1h-18.15v72.67h-24.28v-72.67h-13.48v-19.1Z"/>
    <path class="st0" d="M503.67,436.71v-126.68h24.28v126.68h-24.28Z"/>
    <path class="st0" d="M603.5,407.5l24.2,4.06c-3.11,8.87-8.02,15.63-14.73,20.26-6.71,4.64-15.11,6.96-25.19,6.96-15.96,0-27.77-5.21-35.43-15.64-6.05-8.35-9.07-18.89-9.07-31.63,0-15.21,3.97-27.12,11.92-35.73,7.95-8.61,18-12.92,30.16-12.92,13.65,0,24.42,4.51,32.32,13.52,7.89,9.02,11.67,22.83,11.32,41.43h-60.83c.17,7.2,2.13,12.8,5.88,16.81,3.74,4,8.41,6.01,14,6.01,3.8,0,7-1.04,9.59-3.11s4.55-5.41,5.88-10.02ZM604.88,382.96c-.17-7.03-1.99-12.37-5.44-16.03-3.46-3.66-7.66-5.49-12.62-5.49-5.3,0-9.68,1.93-13.13,5.79-3.46,3.86-5.16,9.1-5.1,15.73h36.29Z"/>
    <path class="st1" d="M706.68,413.83l-2.34-13.54c-2.46,5.39-6.13,9.95-11.02,13.65-4.88,3.71-10.31,6.08-16.27,7.11s-11.76.66-17.04-1.18c-5.28-1.83-9.42-4.98-12.41-9.43-2.99-4.45-5.22-10.94-6.69-19.45l-9.88-57.22,23.93-4.13,7.17,41.55c2.2,12.72,3.98,20.43,5.35,23.15,1.38,2.72,3.37,4.71,5.99,5.98,2.62,1.27,5.71,1.6,9.29.98,4.09-.71,7.56-2.46,10.4-5.26,2.85-2.8,4.58-5.96,5.2-9.49.62-3.53-.19-11.76-2.42-24.7l-6.59-38.15,23.93-4.13,15.61,90.43-22.22,3.84Z"/>
    <path class="st1" d="M724.95,317.55l22.31-3.85,2.29,13.28c2.11-5.04,5.39-9.41,9.84-13.1,4.45-3.69,9.68-6.06,15.7-7.09,10.5-1.81,20.13.76,28.87,7.73,8.74,6.97,14.39,17.8,16.92,32.51,2.61,15.1.94,27.47-4.99,37.12-5.94,9.65-14.15,15.38-24.65,17.19-5,.86-9.7.65-14.1-.64-4.4-1.29-9.26-3.95-14.58-8.01l7.86,45.56-23.93,4.13-21.55-124.83ZM756.16,357.14c1.75,10.16,5.06,17.32,9.93,21.48,4.87,4.16,10.2,5.74,15.99,4.74,5.56-.96,9.8-3.99,12.73-9.08,2.92-5.09,3.5-12.72,1.75-22.88-1.64-9.48-4.75-16.19-9.35-20.13-4.6-3.94-9.71-5.43-15.33-4.46s-10.31,4.1-13.39,9.28c-3.08,5.18-3.86,12.2-2.33,21.05Z"/>
  </g>
</svg>